# xmcd CD database file
#
# Track frame offsets:
#	150
#	16414
#	31274
#	44550
#	75913
#	91707
#	105726
#	120180
#	134366
#	147897
#	160233
#	175997
#	188791
#	214078
#	254546
#	276430
#	295867
#	313607
#	334079
#
# Disc length: 4565 seconds
#
# Revision: 0
# Processed by: cddbd v1.5.2PL0 Copyright (c) Steve Scherf et al.
# Submitted via: CDex 1.51
#
DISCID=0911d313
DTITLE=Louis Armstrong - Disc III. 1947-1956
DYEAR=2007
DGENRE=Jazz
TTITLE0=High Society
TTITLE1=Rocking' Chair
TTITLE2=Blueberry Hill
TTITLE3=New Orleans Function (Part I/Flee As a Bird - Part II/Oh Din't He Ramble)
TTITLE4=La Vie en rose
TTITLE5=C'est si bon (It's So Good)
TTITLE6=You Rascal You
TTITLE7=Dream a Little Dream Of Me
TTITLE8=A Kiss to Build a Dream On
TTITLE9=(I Wonder Why) You're Just in Love
TTITLE10=(When We Are Dancing) I Get Ideas
TTITLE11=Ramona
TTITLE12=Otchi-chor-ni-ya (Dark eyes)
TTITLE13=St. Louis Blues
TTITLE14=The Whiffenpoof Song
TTITLE15=Now You Has Jazz
TTITLE16=Mack the Knife
TTITLE17=A Foggy Day
TTITLE18=When It's Sleepy Time Down South
EXTD=YEAR: 2007
EXTT0=
EXTT1=
EXTT2=
EXTT3=
EXTT4=
EXTT5=
EXTT6=
EXTT7=
EXTT8=
EXTT9=
EXTT10=
EXTT11=
EXTT12=
EXTT13=
EXTT14=
EXTT15=
EXTT16=
EXTT17=
EXTT18=
PLAYORDER=
